PathFileType	3	(X/Y/Z)	C:\Users\jcho911\Documents\Smart Splint MAP workflow\data\P09\mocap\P09EMGstatic01.trc
DataRate	CameraRate	NumFrames	NumMarkers	Units	OrigDataRate	OrigDataStartFrame	OrigNumFrames
200.0	200.0	10	37	mm	200.0	249	995	
Frame#	Time	LAS1			RAS1			LPS1			RPS1			RTH1			RTH2			RTH3			RLFC			RMFC			LTH1			LTH2			LTH3			LLFC			LMFC			LTB1			LTB2			LTB3			LLMAL			LMMAL			LToe			LMT1			LCAL			LMT5			RToe			RMT5			RMT1			RCAL			RTB1			RTB2			RTB3			RMMAL			RLMAL			T10			RACR1			CLAV			C7			LACR1			
		X1	Y1	Z1	X2	Y2	Z2	X3	Y3	Z3	X4	Y4	Z4	X5	Y5	Z5	X6	Y6	Z6	X7	Y7	Z7	X8	Y8	Z8	X9	Y9	Z9	X10	Y10	Z10	X11	Y11	Z11	X12	Y12	Z12	X13	Y13	Z13	X14	Y14	Z14	X15	Y15	Z15	X16	Y16	Z16	X17	Y17	Z17	X18	Y18	Z18	X19	Y19	Z19	X20	Y20	Z20	X21	Y21	Z21	X22	Y22	Z22	X23	Y23	Z23	X24	Y24	Z24	X25	Y25	Z25	X26	Y26	Z26	X27	Y27	Z27	X28	Y28	Z28	X29	Y29	Z29	X30	Y30	Z30	X31	Y31	Z31	X32	Y32	Z32	X33	Y33	Z33	X34	Y34	Z34	X35	Y35	Z35	X36	Y36	Z36	X37	Y37	Z37	
249	1.235	330.32578	1040.4209	-816.53534	596.36035	1031.8544	-817.19006	419.06323	1094.3593	-633.29187	514.62134	1093.6364	-630.44617	674.37982	781.42438	-724.30188	636.84924	680.96692	-796.72308	657.2168	611.16156	-690.23303	650.52533	525.0813	-696.53485	539.49023	511.50995	-722.56	271.61389	685.51904	-738.92145	295.38654	759.76166	-822.22809	333.65265	625.31604	-792.71429	297.18692	527.00726	-716.64703	398.51669	516.86926	-745.32764	271.48312	318.19693	-684.96619	272.80841	403.2702	-648.66028	295.6843	224.27327	-619.8186	286.9277	89.89048	-641.07404	372.56235	90.200706	-681.7392	258.36765	29.747505	-851.13202	322.83664	24.230885	-818.05957	337.39005	40.771492	-588.62939	218.6871	27.699667	-768.74548	667.21417	33.395271	-841.37006	716.08759	29.742031	-768.98346	606.89514	25.3148	-809.41644	623.42743	48.423897	-579.59192	680.83777	326.9155	-624.54523	641.16797	403.46185	-720.41705	674.36102	205.87508	-659.83807	575.70593	94.856972	-660.40472	671.27777	84.179276	-635.07538	461.42624	1334.7987	-612.53302	688.37616	1524.1029	-713.9151	456.92862	1469.994	-822.87189	472.80692	1588.5388	-659.03503	236.55392	1533.1882	-735.89612
250	1.24	330.319	1040.4733	-816.55646	596.33099	1031.8679	-817.21527	419.06049	1094.3625	-633.25177	514.62134	1093.6364	-630.44611	674.39838	781.4292	-724.26031	636.83667	680.98041	-796.72058	657.26068	611.21893	-690.15936	650.552	525.14581	-696.49829	539.46582	511.48807	-722.6062	271.61523	685.51752	-738.92474	295.37057	759.77472	-822.25055	333.65869	625.33972	-792.71643	297.22165	526.97815	-716.67639	398.54749	517.11096	-745.54822	271.45847	318.17838	-684.94257	272.86899	403.25342	-648.69495	295.69055	224.29294	-619.81134	286.92148	89.872391	-641.0614	372.56256	90.200027	-681.73834	258.35477	29.752016	-851.11267	322.87418	24.269314	-818.03516	337.38867	40.774281	-588.61823	218.68828	27.680992	-768.73633	667.17413	33.396675	-841.37195	716.05206	29.743818	-768.97699	606.90198	25.268972	-809.38086	623.40234	48.421299	-579.59454	680.63342	326.88272	-624.4599	641.08258	403.47498	-720.37811	674.39825	205.86795	-659.87482	575.71613	94.852531	-660.4054	671.27881	84.183838	-635.06366	461.42734	1334.8092	-612.45801	688.33844	1524.0764	-713.95978	456.92587	1469.9934	-822.87097	472.77475	1588.5372	-658.99799	236.53696	1533.2322	-735.87158
251	1.245	330.3226	1040.4945	-816.56885	596.33716	1031.9116	-817.22113	419.0647	1094.3812	-633.25024	514.65784	1093.6599	-630.44965	674.35742	781.42657	-724.32837	636.76898	680.94006	-796.74847	657.22101	611.19952	-690.26422	650.54974	525.15057	-696.49103	539.4317	511.49564	-722.5896	271.62106	685.5412	-738.91882	295.10443	759.63922	-821.39612	333.65604	625.35248	-792.69385	297.18738	527.00519	-716.66565	398.42303	517.14697	-745.48657	271.27496	318.20227	-684.90948	272.88382	403.28311	-648.68323	295.67041	224.27112	-619.79724	286.90482	89.903259	-641.05548	372.57434	90.198196	-681.70355	258.36349	29.757393	-851.14404	322.85889	24.247944	-818.04462	337.39627	40.779758	-588.61676	218.6842	27.682787	-768.77979	667.18958	33.430408	-841.33276	716.05084	29.7386	-768.98016	606.88348	25.299088	-809.38135	623.39484	48.438152	-579.6106	680.59418	326.79892	-624.54156	641.09198	403.45642	-720.42542	674.375	205.903	-659.81726	575.72479	94.835968	-660.30853	671.30585	84.203529	-635.04395	461.43292	1334.8064	-612.40302	688.31958	1524.1068	-713.92242	456.89856	1470.0496	-822.88867	472.74829	1588.5616	-658.9964	236.54686	1533.2122	-735.85455
252	1.25	330.31339	1040.4889	-816.57056	596.36298	1031.9264	-817.19299	419.06442	1094.3809	-633.2522	514.62494	1093.6646	-630.4472	674.35699	781.41461	-724.33765	636.81146	680.97052	-796.77686	657.25433	611.20953	-690.2348	650.53564	525.11096	-696.53894	539.46808	511.51865	-722.59955	271.61649	685.54028	-738.92133	295.10956	759.65045	-821.33221	333.65897	625.34949	-792.71191	297.22391	527.00409	-716.67603	398.49738	516.89801	-745.33307	271.3447	318.2283	-684.94861	272.84454	403.25516	-648.64459	295.67023	224.28659	-619.80536	286.90491	89.90416	-641.05267	372.5578	90.191742	-681.74768	258.36612	29.778072	-851.15729	322.84241	24.220545	-818.07495	337.42432	40.792484	-588.63019	218.70555	27.677927	-768.78754	667.20172	33.419788	-841.37457	716.01788	29.786919	-768.95569	606.8877	25.293802	-809.42047	623.39886	48.438446	-579.61328	680.82794	326.89841	-624.51984	641.18628	403.50085	-720.55316	674.38354	205.87827	-659.88776	575.69971	94.856277	-660.42712	671.31952	84.226448	-635.04132	461.4006	1334.8109	-612.3952	688.32104	1524.1554	-713.89148	456.90201	1470.0613	-822.8681	472.74652	1588.5668	-658.9953	236.55641	1533.2411	-735.84418
253	1.255	330.33795	1040.4868	-816.55231	596.36407	1031.9312	-817.19104	419.06445	1094.381	-633.25122	514.62128	1093.6364	-630.44604	674.37286	781.47467	-724.28583	636.85199	680.96631	-796.71399	657.28284	611.26654	-690.14001	650.52924	525.08606	-696.53198	539.50049	511.49161	-722.62213	271.65256	685.53949	-738.89209	295.39255	759.83026	-822.21844	333.64395	625.36047	-792.74518	297.25879	526.99884	-716.6524	398.44748	516.86371	-745.31744	271.45932	318.22174	-684.95874	272.90402	403.29968	-648.69513	295.65891	224.2941	-619.79559	286.91946	89.925117	-641.07001	372.57022	90.205208	-681.73987	258.3494	29.758291	-851.15759	322.84875	24.285793	-818.07196	337.44223	40.780407	-588.65527	218.6916	27.711758	-768.77271	667.20367	33.417122	-841.37134	716.02063	29.69692	-769.00348	606.89142	25.358017	-809.41315	623.39221	48.444393	-579.63495	680.62177	326.83484	-624.53864	641.06299	403.39923	-720.37018	674.39984	205.89824	-659.87701	575.73047	94.870453	-660.36255	671.27777	84.217072	-635.04926	461.43326	1334.8053	-612.40442	688.3363	1524.2178	-713.8634	456.93115	1470.0287	-822.83301	472.71127	1588.5646	-658.92157	236.55148	1533.2218	-735.854
254	1.26	330.35068	1040.4803	-816.50433	596.39972	1031.8843	-817.13074	419.05765	1094.3804	-633.25641	514.68713	1093.6432	-630.38092	674.36914	781.46375	-724.2561	636.88208	681.03046	-796.6604	657.31897	611.2049	-690.1546	650.53674	525.09137	-696.51099	539.54529	511.50714	-722.57782	271.66141	685.58087	-738.88086	295.37665	759.83038	-822.1853	333.66013	625.33948	-792.71344	297.25864	526.99915	-716.65234	398.42438	517.10901	-745.5036	271.25787	318.24689	-684.87537	272.87527	403.29941	-648.6684	295.71741	224.32542	-619.78821	286.9379	89.94252	-641.02814	372.56348	90.200584	-681.73969	258.37497	29.764318	-851.13867	322.78003	24.201183	-818.11493	337.44992	40.781017	-588.66077	218.67503	27.669445	-768.77356	667.19946	33.392612	-841.34369	716.03003	29.686487	-769.01813	606.89471	25.357456	-809.42017	623.44312	48.482189	-579.65851	680.64227	326.8121	-624.51587	641.21124	403.42746	-720.44604	674.38342	205.9133	-659.84076	575.74603	94.887093	-660.35895	671.35291	84.217758	-635.09283	461.43344	1334.8165	-612.32629	688.38568	1524.2616	-713.75385	456.92282	1470.0745	-822.76801	472.71503	1588.5525	-658.90167	236.5386	1533.2305	-735.77881
255	1.265	330.35754	1040.4923	-816.50226	596.40137	1031.868	-817.13287	419.06412	1094.3633	-633.21063	514.65479	1093.6465	-630.37714	674.39081	781.51483	-724.23682	636.89661	680.9845	-796.67468	657.32458	611.19788	-690.15936	650.58234	525.11884	-696.46387	539.49347	511.51694	-722.45404	271.65701	685.56409	-738.87439	295.42239	759.86975	-822.1344	333.6687	625.33704	-792.69171	297.22418	527.026	-716.62494	398.52863	517.14392	-745.53326	271.30313	318.22903	-684.8913	272.91949	403.2825	-648.68744	295.67929	224.31203	-619.79553	286.94135	89.948601	-641.02734	372.56534	90.173889	-681.75287	258.3692	29.76358	-851.17615	322.85535	24.248678	-818.04816	337.45392	40.786198	-588.65552	218.7384	27.658648	-768.77722	667.20691	33.418228	-841.33203	716.03894	29.734743	-769.01794	606.90436	25.3325	-809.41663	623.44507	48.478275	-579.63971	680.87439	326.89151	-624.47821	641.15527	403.41049	-720.31665	674.39496	205.86893	-659.93188	575.74939	94.865829	-660.34027	671.29138	84.243782	-635.02881	461.43698	1334.8115	-612.3313	688.31421	1524.1758	-713.82336	456.92661	1470.0449	-822.74109	472.74371	1588.5559	-658.86829	236.56248	1533.1893	-735.73846
256	1.27	330.34879	1040.511	-816.44897	596.37323	1031.8939	-817.1554	419.08884	1094.3676	-633.18842	514.68713	1093.6432	-630.38092	674.36926	781.47021	-724.24561	636.90778	681.02686	-796.65552	657.33215	611.20142	-690.21277	650.5882	525.10004	-696.47217	539.45947	511.56235	-722.3902	271.65921	685.55865	-738.8847	295.49454	759.86615	-822.16718	333.66977	625.33667	-792.69226	297.2244	527.02509	-716.62579	398.4993	517.11487	-745.48187	271.50958	318.22229	-684.97339	272.9035	403.28342	-648.69647	295.69339	224.30569	-619.75781	286.9389	89.938263	-641.0246	372.57193	90.184311	-681.71631	258.37585	29.746296	-851.16113	322.84991	24.236986	-818.04376	337.45477	40.781757	-588.66199	218.73067	27.662622	-768.77728	667.20673	33.433071	-841.37286	716.02893	29.70282	-768.99811	606.9024	25.315985	-809.41638	623.45557	48.467022	-579.63312	680.86713	326.87418	-624.47449	641.15021	403.38812	-720.33057	674.38306	205.87253	-659.90594	575.7254	94.877937	-660.38953	671.32104	84.208748	-635.11688	461.43915	1334.842	-612.33411	688.35138	1524.2126	-713.75555	456.92819	1470.0403	-822.76294	472.73694	1588.5354	-658.86792	236.57329	1533.2118	-735.74158
257	1.275	330.33633	1040.5222	-816.41162	596.33887	1031.8867	-817.12183	419.10214	1094.3879	-633.18018	514.72083	1093.6534	-630.31201	674.39752	781.45728	-724.22833	636.94891	681.034	-796.66785	657.32257	611.2323	-690.13086	650.61932	525.06854	-696.50397	539.49927	511.50061	-722.4693	271.65961	685.55872	-738.88507	295.41476	759.91608	-822.14001	333.66986	625.33612	-792.69537	297.25296	527.00964	-716.6391	398.31073	517.1731	-745.42273	271.44818	318.18991	-684.93921	272.94104	403.26474	-648.66718	295.69208	224.32182	-619.76434	286.95331	89.934204	-641.04327	372.55872	90.179359	-681.76135	258.39117	29.74268	-851.12305	322.84503	24.155827	-818.0769	337.44455	40.80088	-588.6604	218.71066	27.651861	-768.76959	667.20111	33.42902	-841.39417	716.01563	29.703827	-769.02789	606.89264	25.358923	-809.43524	623.46283	48.479176	-579.6424	680.87244	326.89838	-624.5011	641.242	403.19247	-720.28534	674.38239	205.86383	-659.88348	575.74866	94.863419	-660.3432	671.34448	84.204201	-635.12714	461.47247	1334.8497	-612.26312	688.32745	1524.2212	-713.73309	456.93997	1470.0861	-822.72784	472.77103	1588.5571	-658.83533	236.53926	1533.2043	-735.71722
258	1.28	330.34644	1040.5248	-816.44049	596.33728	1031.9281	-817.07928	419.1091	1094.3967	-633.07587	514.75372	1093.6624	-630.24426	674.39899	781.48523	-724.24091	636.92358	680.98163	-796.63519	657.31458	611.13556	-690.17322	650.59125	525.07507	-696.44623	539.58588	511.50388	-722.49353	271.65845	685.56073	-738.84369	295.43036	759.93097	-822.16754	333.65555	625.36945	-792.68848	297.25293	527.01147	-716.63849	398.60126	517.11432	-745.60895	271.5376	318.22	-684.91931	272.94098	403.26627	-648.68134	295.68726	224.30391	-619.77075	286.94565	89.939651	-641.0545	372.55753	90.178978	-681.76056	258.40604	29.740501	-851.12256	322.7995	24.13258	-818.02039	337.42325	40.81641	-588.59656	218.75972	27.671627	-768.79791	667.19928	33.422512	-841.34052	716.04675	29.764526	-768.99316	606.93787	25.332453	-809.40637	623.46893	48.465023	-579.64099	680.86688	326.8638	-624.50952	641.13409	403.38129	-720.28479	674.40338	205.86295	-659.89783	575.72217	94.90509	-660.45587	671.31079	84.174103	-635.10291	461.51215	1334.8618	-612.1969	688.3894	1524.276	-713.66925	456.89084	1470.0227	-822.76965	472.74329	1588.5211	-658.78821	236.55072	1533.1743	-735.68781
